<?xml version="1.0" encoding="UTF-8"?>
<svg width="77px" height="77px" viewBox="0 0 77 77" version="1.1" xmlns="http://www.w3.org/2000/svg" xmlns:xlink="http://www.w3.org/1999/xlink">
    <!-- Generator: Sketch 42 (36781) - http://www.bohemiancoding.com/sketch -->
    <title>design-btn</title>
    <desc>Created with Sketch.</desc>
    <defs></defs>
    <g id="Symbols" stroke="none" stroke-width="1" fill="none" fill-rule="evenodd">
        <g id="design-btn">
            <g id="Group">
                <circle id="Background" fill="#50E3BC" cx="38.5" cy="38.5" r="38.5"></circle>
                <g id="design-svg" transform="translate(14.000000, 15.000000)" fill="#FFFFFF">
                    <rect id="Rectangle-path" transform="translate(23.974121, 27.723253) rotate(-45.000000) translate(-23.974121, -27.723253) " x="17.3129982" y="26.5639732" width="13.3222459" height="2.31855854"></rect>
                    <path d="M25.7127033,14.0095515 L10.5832088,29.4647809 L10.2535385,29.801549 L10.0747253,30.7455772 L7.38461538,44.9501848 L21.2893187,42.2016186 L22.213978,42.0189556 L22.5431209,41.6827263 L37.6726154,26.2274969 L25.7127033,14.0095515 Z M10.2509011,42.0221885 L10.837978,38.9233835 L13.2849231,41.4230108 L10.2509011,42.0221885 Z M15.973978,40.8911867 L11.3585934,36.1764338 L12.0121319,32.7246958 L19.352967,40.2235777 L15.973978,40.8911867 Z M21.6622418,39.3043355 L12.9109451,30.365164 L25.7127033,17.2883254 L34.4634725,26.2274969 L21.6622418,39.3043355 Z" id="Shape"></path>
                    <path d="M42.8771868,20.1318602 C46.1744176,16.7636407 46.1744176,11.2826731 42.8771868,7.91445366 L42.8771868,7.91445366 C39.5794286,4.54677301 34.213978,4.54569535 30.9162198,7.91445366 L29.010989,9.86124249 L40.9709011,22.0791879 L42.8771868,20.1318602 Z M32.5213187,9.55357119 C34.9329231,7.08950661 38.8594286,7.08950661 41.2720879,9.55357119 C43.6847473,12.0181746 43.6847473,16.0281393 41.2720879,18.4922039 L40.9709011,18.7998752 L32.2201319,9.86070366 L32.5213187,9.55357119 Z" id="Shape"></path>
                    <rect id="Rectangle-path" transform="translate(32.993388, 18.077691) rotate(45.000000) translate(-32.993388, -18.077691) " x="24.7664777" y="16.9184112" width="16.4538202" height="2.31855854"></rect>
                    <path d="M18.5026813,10.6176235 L18.4995165,10.6720453 C18.4968791,10.7156904 18.4942418,10.7587967 18.4942418,10.8029807 L18.5121758,11.1424429 L20.496,11.1424429 L20.496,10.8029807 C20.496,10.7604132 20.4938901,10.7189234 20.4907253,10.6768947 L20.487033,10.6327108 C20.5756484,8.47200685 22.3015385,6.77954527 24.4161758,6.77954527 L24.7484835,6.77954527 L24.7484835,4.36289763 L24.4161758,4.36289763 C22.3015385,4.36289763 20.5756484,2.67043605 20.487033,0.532362957 L20.4907253,0.465548173 C20.4933626,0.424058347 20.496,0.382029693 20.496,0.339462209 L20.4780659,8.8817842e-16 L18.4942418,8.8817842e-16 L18.4942418,0.339462209 C18.4942418,0.383646179 18.4968791,0.427291321 18.4995165,0.470936462 L18.5032088,0.509193314 C18.4145934,2.66989722 16.6887033,4.3623588 14.5740659,4.3623588 L14.2417582,4.3623588 L14.2417582,6.77954527 L14.5740659,6.77954527 C16.6834286,6.78008409 18.4061538,8.46446325 18.5026813,10.6176235 Z M21.4501978,5.57149086 C20.6700659,6.03488372 19.9980659,6.6777066 19.4953846,7.44230482 C18.9921758,6.6777066 18.3201758,6.03488372 17.5405714,5.57149086 C18.3207033,5.10809801 18.9921758,4.46527512 19.4953846,3.70067691 C19.9980659,4.46527512 20.6700659,5.10755918 21.4501978,5.57149086 Z" id="Shape"></path>
                    <path d="M47.624967,35.614974 C45.5103297,35.614974 43.7844396,33.9225125 43.6958242,31.7844394 L43.6995165,31.7176246 C43.7021538,31.6761348 43.7047912,31.6341061 43.7047912,31.5915386 L43.6868571,31.2520764 L41.703033,31.2520764 L41.703033,31.5915386 C41.703033,31.6341061 41.7056703,31.6761348 41.7083077,31.7176246 L41.712,31.7612697 C41.6233846,33.9219736 39.8974945,35.6144352 37.7828571,35.6144352 L37.4505495,35.6144352 L37.4505495,38.0316217 L37.7828571,38.0316217 C39.8927473,38.0316217 41.616,39.7165397 41.7114725,41.8702388 L41.7083077,41.9289711 C41.7051429,41.9709998 41.703033,42.0124896 41.703033,42.0550571 L41.720967,42.3945193 L43.7047912,42.3945193 L43.7047912,42.0550571 C43.7047912,42.0124896 43.7026813,41.9709998 43.6995165,41.9289711 L43.6958242,41.8847872 C43.7844396,39.7240833 45.5103297,38.0316217 47.624967,38.0316217 L47.9572747,38.0316217 L47.9572747,35.6144352 L47.624967,35.6144352 L47.624967,35.614974 Z M40.7488352,36.8235673 C41.528967,36.3601744 42.2004396,35.7173515 42.7036484,34.9527533 C43.2063297,35.7173515 43.8788571,36.3601744 44.6584615,36.8235673 C43.8783297,37.2869601 43.2063297,37.929783 42.7036484,38.6943812 C42.2004396,37.929783 41.5284396,37.287499 40.7488352,36.8235673 Z" id="Shape"></path>
                    <path d="M6.24527473,25.18163 C6.33389011,23.0209261 8.05978022,21.3284645 10.1744176,21.3284645 L10.5067253,21.3284645 L10.5067253,18.911278 L10.1744176,18.911278 C8.05978022,18.911278 6.33389011,17.2188164 6.24527473,15.0834375 L6.24896703,15.0193169 C6.25213187,14.9756717 6.25476923,14.9320266 6.25476923,14.8878426 L6.23630769,14.5483804 L4.25248352,14.5483804 L4.25248352,14.8878426 C4.25248352,14.9320266 4.25512088,14.9756717 4.25828571,15.0193169 L4.26197802,15.0575737 C4.17283516,17.2182776 2.44694505,18.9107392 0.332307692,18.9107392 L0,18.9107392 L0,21.3279257 L0.332307692,21.3279257 C2.44167033,21.3279257 4.16492308,23.0123048 4.26145055,25.1654651 L4.25828571,25.2204257 C4.25512088,25.2640708 4.25248352,25.3071771 4.25248352,25.3513611 L4.27041758,25.6908233 L6.25476923,25.6908233 L6.25476923,25.3513611 C6.25476923,25.3071771 6.25213187,25.263532 6.24896703,25.2204257 L6.24527473,25.18163 Z M3.29828571,20.1198713 C4.07841758,19.6564784 4.75041758,19.0136555 5.2530989,18.2490573 C5.75630769,19.0136555 6.42830769,19.6564784 7.20791209,20.1198713 C6.42778022,20.5832641 5.75630769,21.226087 5.2530989,21.9906852 C4.75041758,21.226087 4.07841758,20.5832641 3.29828571,20.1198713 Z" id="Shape"></path>
                </g>
            </g>
        </g>
    </g>
</svg>