<?xml version="1.0" encoding="UTF-8"?>
<svg width="149px" height="137px" viewBox="0 0 149 137" version="1.1" xmlns="http://www.w3.org/2000/svg" xmlns:xlink="http://www.w3.org/1999/xlink">
    <!-- Generator: Sketch 42 (36781) - http://www.bohemiancoding.com/sketch -->
    <title>design-svg</title>
    <desc>Created with Sketch.</desc>
    <defs>
        <linearGradient x1="7.72938156%" y1="0%" x2="93.9614415%" y2="100.999999%" id="linearGradient-1">
            <stop stop-color="#3F3BBC" offset="0%"></stop>
            <stop stop-color="#D587E0" offset="100%"></stop>
        </linearGradient>
    </defs>
    <g id="Page-1" stroke="none" stroke-width="1" fill="none" fill-rule="evenodd">
        <g id="design-svg" fill-rule="nonzero" fill="#FFFFFF">
            <g id="Front-Page">
                <g id="Desktop">
                    <g id="Services">
                        <g id="Design">
                            <g id="design-svg" transform="translate(0.050562, 0.000000)">
                                <rect id="Rectangle-path" transform="translate(74.261156, 84.359588) rotate(-45.000000) translate(-74.261156, -84.359588) " x="53.6279622" y="80.8319959" width="41.2663879" height="7.05518383"></rect>
                                <path d="M79.6465099,42.6299184 L32.7820702,89.6589164 L31.7608982,90.6836741 L31.2070146,93.5562747 L22.8742515,136.779733 L65.9448333,128.416071 L68.8090163,127.860242 L69.8285544,126.837124 L116.692994,79.808126 L79.6465099,42.6299184 Z M31.7527289,127.87008 L33.5712319,118.44067 L41.1507785,126.046831 L31.7527289,127.87008 Z M49.4802738,124.428534 L35.1838666,110.081927 L37.2082379,99.5785705 L59.9468778,122.397054 L49.4802738,124.428534 Z M67.099983,119.599876 L39.992361,92.3987085 L79.6465099,52.6069589 L106.752498,79.808126 L67.099983,119.599876 Z" id="Shape"></path>
                                <path d="M132.81444,61.2596027 C143.027793,51.0103865 143.027793,34.3322508 132.81444,24.0830346 L132.81444,24.0830346 C122.599453,13.8354581 105.979675,13.8321789 95.7646879,24.0830346 L89.863131,30.0069537 L126.909615,67.1851613 L132.81444,61.2596027 Z M100.73657,29.0707351 C108.206647,21.5727883 120.369213,21.5727883 127.842558,29.0707351 C135.315903,36.5703215 135.315903,48.7723158 127.842558,56.2702626 L126.909615,57.2064812 L99.8036272,30.005314 L100.73657,29.0707351 Z" id="Shape"></path>
                                <rect id="Rectangle-path" transform="translate(102.198830, 55.008932) rotate(45.000000) translate(-102.198830, -55.008932) " x="76.7155239" y="51.4813402" width="50.9666114" height="7.05518383"></rect>
                                <path d="M57.3130711,32.3085593 L57.3032678,32.4741601 C57.2950984,32.6069687 57.2869291,32.7381377 57.2869291,32.8725859 L57.3424808,33.9055416 L63.4874851,33.9055416 L63.4874851,32.8725859 C63.4874851,32.7430565 63.4809496,32.6168064 63.4711464,32.4889166 L63.4597092,32.3544684 C63.7342003,25.7796233 69.0802396,20.6296013 75.6304449,20.6296013 L76.6597862,20.6296013 L76.6597862,13.2759403 L75.6304449,13.2759403 C69.0802396,13.2759403 63.7342003,8.12591829 63.4597092,1.6199369 L63.4711464,1.41662498 C63.4793157,1.29037484 63.4874851,1.16248508 63.4874851,1.03295571 L63.4319334,-3.55271368e-15 L57.2869291,-3.55271368e-15 L57.2869291,1.03295571 C57.2869291,1.16740392 57.2950984,1.30021251 57.3032678,1.4330211 L57.314705,1.54943357 C57.0402139,8.12427867 51.6941746,13.2743007 45.1439693,13.2743007 L44.1146279,13.2743007 L44.1146279,20.6296013 L45.1439693,20.6296013 C51.6778358,20.6312409 57.0140719,25.7566688 57.3130711,32.3085593 Z M66.4431652,16.9535906 C64.0266639,18.3636571 61.945107,20.3197146 60.388024,22.6463243 C58.8293072,20.3197146 56.7477503,18.3636571 54.3328829,16.9535906 C56.7493842,15.5435241 58.8293072,13.5874667 60.388024,11.2608569 C61.945107,13.5874667 64.0266639,15.5418845 66.4431652,16.9535906 Z" id="Shape"></path>
                                <path d="M147.52095,108.373451 C140.970744,108.373451 135.624705,103.223429 135.350214,96.7174471 L135.361651,96.5141352 C135.369821,96.3878851 135.37799,96.2599953 135.37799,96.1304659 L135.322438,95.0975102 L129.177434,95.0975102 L129.177434,96.1304659 C129.177434,96.2599953 129.185603,96.3878851 129.193773,96.5141352 L129.20521,96.6469438 C128.930719,103.221789 123.584679,108.371811 117.034474,108.371811 L116.005133,108.371811 L116.005133,115.727111 L117.034474,115.727111 C123.569974,115.727111 128.907844,120.854179 129.203576,127.407709 L129.193773,127.586427 C129.183969,127.714317 129.177434,127.840567 129.177434,127.970096 L129.232986,129.003052 L135.37799,129.003052 L135.37799,127.970096 C135.37799,127.840567 135.371454,127.714317 135.361651,127.586427 L135.350214,127.451979 C135.624705,120.877134 140.970744,115.727111 147.52095,115.727111 L148.550291,115.727111 L148.550291,108.371811 L147.52095,108.371811 L147.52095,108.373451 Z M126.221754,112.051101 C128.638255,110.641034 130.718178,108.684977 132.276895,106.358367 C133.833978,108.684977 135.917169,110.641034 138.332036,112.051101 C135.915535,113.461167 133.833978,115.417225 132.276895,117.743835 C130.718178,115.417225 128.636621,113.462807 126.221754,112.051101 Z" id="Shape"></path>
                                <path d="M19.3450813,76.6256387 C19.6195723,70.0507936 24.9656117,64.9007715 31.515817,64.9007715 L32.5451583,64.9007715 L32.5451583,57.545471 L31.515817,57.545471 C24.9656117,57.545471 19.6195723,52.3954489 19.3450813,45.8976656 L19.3565184,45.7025517 C19.3663217,45.5697431 19.374491,45.4369345 19.374491,45.3024863 L19.3173054,44.2695306 L13.1723011,44.2695306 L13.1723011,45.3024863 C13.1723011,45.4369345 13.1804705,45.5697431 13.1902738,45.7025517 L13.2017109,45.8189642 C12.925586,52.3938093 7.57954663,57.5438314 1.02934132,57.5438314 L0,57.5438314 L0,64.8991319 L1.02934132,64.8991319 C7.56320788,64.8991319 12.9010779,70.0245598 13.200077,76.5764503 L13.1902738,76.7436907 C13.1804705,76.8764993 13.1723011,77.0076683 13.1723011,77.1421165 L13.2278529,78.1750722 L19.374491,78.1750722 L19.374491,77.1421165 C19.374491,77.0076683 19.3663217,76.8748597 19.3565184,76.7436907 L19.3450813,76.6256387 Z M10.2166211,61.2231212 C12.6331223,59.8130547 14.7146792,57.8569973 16.2717622,55.5303875 C17.8304791,57.8569973 19.912036,59.8130547 22.3269034,61.2231212 C19.9104021,62.6331878 17.8304791,64.5892452 16.2717622,66.9158549 C14.7146792,64.5892452 12.6331223,62.6331878 10.2166211,61.2231212 Z" id="Shape"></path>
                            </g>
                        </g>
                    </g>
                </g>
            </g>
        </g>
    </g>
</svg>