<?xml version="1.0" encoding="UTF-8"?>
<svg width="77px" height="77px" viewBox="0 0 77 77" version="1.1" xmlns="http://www.w3.org/2000/svg" xmlns:xlink="http://www.w3.org/1999/xlink">
    <!-- Generator: Sketch 42 (36781) - http://www.bohemiancoding.com/sketch -->
    <title>btn-illu</title>
    <desc>Created with Sketch.</desc>
    <defs></defs>
    <g id="Symbols" stroke="none" stroke-width="1" fill="none" fill-rule="evenodd">
        <g id="btn-illu">
            <g id="Group-Copy">
                <circle id="Background" fill="#50E3BC" cx="38.5" cy="38.5" r="38.5"></circle>
                <path d="M50.9602259,25.1282848 L39.7117122,13.7263823 C38.7913793,12.7549197 37.2574911,12.7549197 36.3371581,13.7263823 L36.3371581,13.7263823 L25.0886445,25.1282848 L18.9530916,25.1282848 C17.6237218,25.1282848 16.55,26.2020065 16.55,27.5313763 L16.55,56.6241231 C16.55,57.9534929 17.6237218,59.0272146 18.9530916,59.0272146 L57.1469084,59.0272146 C58.4762782,59.0272146 59.55,57.9534929 59.55,56.6241231 L59.55,27.5313763 C59.55,26.2020065 58.4762782,25.1282848 57.1469084,25.1282848 L50.9602259,25.1282848 Z M38.0244352,15.6693074 L47.6368014,25.4350624 L28.412069,25.4350624 L38.0244352,15.6693074 Z M55.0505945,55.6015309 L20.9982759,55.6015309 C20.1290725,55.6015309 19.413258,54.8857164 19.413258,53.9653835 L19.413258,30.1901159 C19.413258,29.269783 20.1290725,28.5539685 20.9982759,28.5539685 L55.1017241,28.5539685 C55.9709275,28.5539685 56.686742,29.269783 56.686742,30.1901159 L56.686742,53.9653835 C56.686742,54.8857164 55.9709275,55.6015309 55.0505945,55.6015309 Z M33.2693817,37.2460018 C33.2693817,38.5753716 32.1956599,39.6490933 30.8662901,39.6490933 C29.5369203,39.6490933 28.4631986,38.5753716 28.4631986,37.2460018 C28.4631986,35.916632 29.5369203,34.8429102 30.8662901,34.8429102 C32.1956599,34.7917806 33.2693817,35.8655024 33.2693817,37.2460018 Z M49.9376338,49.3125892 L30.8662901,49.3125892 L34.4453627,42.0521849 L36.8484542,46.9094976 L42.8306183,34.7917806 L49.9376338,49.3125892 Z" id="Shape" fill="#FFFFFF" fill-rule="nonzero"></path>
            </g>
        </g>
    </g>
</svg>